PathFileType	4	(X/Y/Z)	18_2_30_p1_0-363.trc
DataRate	CameraRate	NumFrames	NumMarkers	Units	OrigDataRate	OrigDataStartFrame	OrigNumFrames
59.0	59.0	5	27	m	59.0	227	364
Frame#	Time	RHip			RKnee			RAnkle			RBigToe			RSmallToe			RHeel			LHip			LKnee			LAnkle			LBigToe			LSmallToe			LHeel			Neck			Head			Nose			RShoulder			RElbow			RWrist			RThumb			RIndex			RPinky			LShoulder			LElbow			LWrist			LThumb			LIndex			LPinky			
		X1	Y1	Z1	X2	Y2	Z2	X3	Y3	Z3	X4	Y4	Z4	X5	Y5	Z5	X6	Y6	Z6	X7	Y7	Z7	X8	Y8	Z8	X9	Y9	Z9	X10	Y10	Z10	X11	Y11	Z11	X12	Y12	Z12	X13	Y13	Z13	X14	Y14	Z14	X15	Y15	Z15	X16	Y16	Z16	X17	Y17	Z17	X18	Y18	Z18	X19	Y19	Z19	X20	Y20	Z20	X21	Y21	Z21	X22	Y22	Z22	X23	Y23	Z23	X24	Y24	Z24	X25	Y25	Z25	X26	Y26	Z26	X27	Y27	Z27	
227	3.847457627118644	0.27341252432385754	0.4212980095131647	1.1626991331125212	0.24211170812090882	0.4674959672247262	1.5843392004564387	0.22165386543302898	0.6343207163890565	2.0344640752963845	0.22426750352518426	0.3932012082007918	2.0392552308030387	0.267902599573701	0.4496962839777902	2.0548001804010094	0.2076466825787678	0.6908636119880949	2.092006825015247	0.07052958599094974	0.3663570484247757	1.1544164609114016	0.08235763621932544	0.4340446127607813	1.5732826560536706	0.06205104735327394	0.566664463876363	2.019444159334001	0.06943482576309536	0.39254104328907274	2.046463548057591	0.03416111974701791	0.3894438507638085	2.027463115341932	0.08034662780639791	0.649594027839232	2.078172557003293	0.1882957827636723	0.2622832720591916	0.6000591088281386	0.20108131404940188	0.17407366300824842	0.37038268107790495	0.19131363561802547	0.09516948761279136	0.5028939671216781	0.3257586277328178	0.30886329046612643	0.7071579253888414	0.3746335490864476	0.41803621049329565	0.9639807765297038	0.3777113077186587	0.4290693180855929	1.2086614418124861	0.32274968474107946	0.3736970145621176	1.3098141297778376	0.3383720351755418	0.3744180787209977	1.3350893641020787	0.3732957257439659	0.4404243800366628	1.3489284093036011	0.021106232902659915	0.2963886391372076	0.6992609875402185	-0.016804417281172747	0.32447985090378145	0.9557091696154938	-0.020342587594496083	0.3265709409598063	1.1936451897297062	0.04201127928114481	0.29432362586684585	1.2846304955224865	0.01887385798107303	0.3319643565985893	1.3112044356292782	-0.025680269647523454	0.354552335314223	1.3156594785598512
228	3.864406779661017	0.2733958436811032	0.42141333211518817	1.1625089926304046	0.24184414790726516	0.4691667149100707	1.5804582259830287	0.2205670507548052	0.6356470002710706	2.039481823870733	0.2204926283281861	0.3825324867318104	2.029945228873349	0.267855738865206	0.45021551625930073	2.0549869904885587	0.20358638936735182	0.6773994581088617	2.081156034327185	0.0701999177732285	0.36425396329664245	1.1493841093705641	0.08282621304328397	0.4300401773073115	1.5632582612477157	0.05645755278243903	0.5850288138600306	2.023161258128109	0.06933171447364118	0.3920331256222437	2.0462332293864174	0.02870770691763311	0.4048944365915218	2.0350163861744712	0.0787096619190824	0.6341441517455382	2.066498367506925	0.1880307288720068	0.26265372340882326	0.6033612627665875	0.1983656211985059	0.16551270576516433	0.37707631436103023	0.19121830587467478	0.09587397774912391	0.5000995164697397	0.3221456260430923	0.2965124725057672	0.7100002758924833	0.37464656869377533	0.41800359866483905	0.9639615492343963	0.37769194046777504	0.4290374628996273	1.2085279555688253	0.32275848847117045	0.373544104667598	1.3093681765090355	0.342149098090696	0.38526419505091947	1.3377078302357959	0.3782757701757911	0.4428410545380106	1.3495752882612957	0.025630172815940808	0.28650587996664867	0.7020206877027519	-0.012550549265046299	0.32717632739992436	0.9520047707478486	-0.020208296694699923	0.3266230612220757	1.1937287775641627	0.04210911639395987	0.2942679255459698	1.2847220034358129	0.018607516736993224	0.33195785574786973	1.3146226659248663	-0.0257553055600862	0.3544591828496491	1.3158704356606437
229	3.8813559322033897	0.27338883572944456	0.42146895889067293	1.162499461691455	0.24189046496539565	0.46934748041990576	1.5805241217949852	0.22058434045556546	0.6357094749992381	2.039468761648123	0.22488108338777327	0.3981806646276455	2.041020447722026	0.2680716267218795	0.4503188366188603	2.0551231988249707	0.2035871776233665	0.6772557263463322	2.081083803420389	0.07031196856080742	0.36404699912002353	1.14928769706688	0.08282750230844707	0.4299095334938089	1.563110525026622	0.05566835206403872	0.5817616508686242	2.017251903668062	0.06957606719055491	0.39255608052620394	2.0461982527658624	0.028875208382947548	0.40497580465666694	2.034606165837809	0.0815971141433885	0.6482698214862361	2.072656062693279	0.18803376700093966	0.26261066696251345	0.6034633331019171	0.20205606111348132	0.15378793762985155	0.37778624452453297	0.19131096800651523	0.09494287587110758	0.5032025960869384	0.3219876152956415	0.2963093360203338	0.7099107353399874	0.37417232272910533	0.41565850612341515	0.9598089341993462	0.37773218239668727	0.4288991260076804	1.208321779514222	0.3227567972334886	0.3734721307816494	1.3092482072878677	0.3421527461630804	0.38544860834632805	1.3377155187793386	0.3820044822060799	0.45435295438181916	1.352328528716363	0.025618346082612604	0.2863914823044082	0.7020482066744662	-0.016756575381643816	0.3255723194452834	0.9519490591096623	-0.020132856437664808	0.32675918783479657	1.1937218452825837	0.04607755102704829	0.29573130121907304	1.2850615522386404	0.018554810286240522	0.3323027239346656	1.3146857611404519	-0.02612736402737971	0.35234448549642905	1.3107732677479842
230	3.8983050847457625	0.2733631205264108	0.42149753614556845	1.1624352484826819	0.241404881638862	0.4555054983292691	1.572009031475526	0.22161952152006562	0.6339522792740417	2.034592516068246	0.22065686888931754	0.3823594711386866	2.030000385168451	0.26853711295082805	0.44963095307125805	2.055310701883876	0.207196157495749	0.6932372877508336	2.088447323808857	0.07037212508961307	0.36431745973486995	1.149332288002794	0.08293285695052606	0.43008394227908847	1.5631988024641152	0.055753170192139476	0.5816920688201511	2.0172959063640845	0.06962951349179605	0.3926881373989439	2.046115787992893	0.028506622194395967	0.40720689689257317	2.030906189849965	0.08162332751971275	0.6483408242678873	2.072623763383103	0.18829787980215615	0.2616556793783188	0.6070745480809796	0.20558626291684956	0.1421018998793949	0.3783550997461652	0.1875561536308229	0.0947618618181452	0.50653248643031	0.32210231544281287	0.29650402577986873	0.710117085065955	0.3746602054517534	0.41790217197509927	0.963947675058086	0.3776740114500654	0.42887521819297325	1.2080787229328698	0.3227265367062331	0.37348328974986195	1.3092709973165084	0.33841316713458214	0.3742075931252243	1.3349483502442374	0.38122969177238925	0.4522539650809177	1.348704684197201	0.025884472521019053	0.2850657097984863	0.7059794681973385	-0.016620630697026965	0.3244529811623386	0.9555781633795322	-0.01736912845435324	0.3393024553252175	1.1962606587519342	0.04145791087373057	0.30876252559439366	1.288582538136528	0.01900361447808589	0.33177029919363754	1.3113549571283283	-0.025754455977999382	0.3546385399478907	1.3157408881741095
231	3.9152542372881354	0.27333795801681837	0.42146272234185556	1.1624634156089997	0.2371205732174775	0.45340701857419996	1.5713615061642707	0.22162189075790267	0.6339650072911599	2.034494503931406	0.22057932894760413	0.38215946291468533	2.02992936818196	0.2684161293690387	0.4490582791712825	2.0550149744188126	0.20720994779022875	0.6933014730996147	2.0883571501175746	0.07044928956730108	0.3645503373444386	1.1495445578092416	0.08289303055098017	0.43022948418051604	1.5631699806715218	0.05653751835723985	0.5850604325988303	2.0231434547658433	0.06955480184738033	0.3923941015622612	2.0460773289234115	0.02850248438028257	0.4072671646510668	2.030922003043844	0.08164337889446166	0.6485673689324127	2.0730098855085037	0.18811539663448942	0.26202257591450806	0.6102702535310537	0.2029777273986324	0.1303859672950076	0.38299470350706233	0.1873854179879327	0.09503572324521471	0.509666935518286	0.32214725834542235	0.2964768668291098	0.7101679437902021	0.37465220213201855	0.41805261641894553	0.9640002579643788	0.37768345152532445	0.4288553477610081	1.2082540227031742	0.32275702120532507	0.37344714988426814	1.3093053210541663	0.3421995994281876	0.38524137458501023	1.3377754024190627	0.3816145543451469	0.4562059632731497	1.348563359732901	0.025918417483993917	0.2849426438231748	0.7059671646479126	-0.016554166472469288	0.32445338780059546	0.9554487309455032	-0.013662750658691998	0.34100168176864887	1.1965077878064947	0.04393808002317127	0.3213393009016757	1.2916881224487857	0.018509114832540016	0.33340008894269413	1.315100232039326	-0.025597162698956254	0.35509776363160683	1.3157757183154044
